<svg id="Layer_1" data-name="Layer 1" xmlns="http://www.w3.org/2000/svg" viewBox="0 0 490.37 60"><defs><style>.cls-1{fill:#1d1d1b;}</style></defs><title>clothingstore_logo</title><path class="cls-1" d="M25,47.8a27.54,27.54,0,0,1-9.16-1.47A19.5,19.5,0,0,1,8.61,42a19.58,19.58,0,0,1-4.68-7.23,28,28,0,0,1-1.66-10,27.54,27.54,0,0,1,1.59-9.6,20.42,20.42,0,0,1,4.6-7.38,19.45,19.45,0,0,1,7.19-4.57A26.3,26.3,0,0,1,25,1.56a36.73,36.73,0,0,1,5.06.32,34.61,34.61,0,0,1,4.17.82A28.84,28.84,0,0,1,37.88,4c1.09.47,2,.9,2.86,1.3V16.06H39.42c-.56-.48-1.26-1-2.11-1.7a28.21,28.21,0,0,0-2.88-1.93,19.86,19.86,0,0,0-3.56-1.6,12.44,12.44,0,0,0-4.09-.66,13.79,13.79,0,0,0-4.6.76,11.29,11.29,0,0,0-4,2.52A12.56,12.56,0,0,0,15.29,18a18.68,18.68,0,0,0-1.09,6.8,17.92,17.92,0,0,0,1.18,7,12.33,12.33,0,0,0,3,4.42,11,11,0,0,0,4.07,2.34,14.61,14.61,0,0,0,4.42.7A14.38,14.38,0,0,0,31,38.57a16.59,16.59,0,0,0,3.78-1.7A24.86,24.86,0,0,0,37.48,35c.84-.66,1.52-1.22,2.06-1.7h1.2V44l-3.2,1.41a28,28,0,0,1-3.2,1.13,38.28,38.28,0,0,1-4.09,1A32.65,32.65,0,0,1,25,47.8Z"/><path class="cls-1" d="M59.35,46.93H48.57V.43H59.35Z"/><path class="cls-1" d="M103.79,30.16q0,8.28-4.82,13.05T85.42,48q-8.73,0-13.56-4.77T67,30.16q0-8.32,4.85-13.09t13.53-4.75q8.77,0,13.58,4.78T103.79,30.16ZM90.56,38.32a8.49,8.49,0,0,0,1.56-3.09,18.73,18.73,0,0,0,.53-5,19.4,19.4,0,0,0-.54-5,8.77,8.77,0,0,0-1.49-3.19,5.26,5.26,0,0,0-2.31-1.74,8.06,8.06,0,0,0-2.89-.51,8.44,8.44,0,0,0-2.77.42,5.6,5.6,0,0,0-2.32,1.68,8.48,8.48,0,0,0-1.56,3.19,18.83,18.83,0,0,0-.59,5.11A19.58,19.58,0,0,0,78.69,35a8.27,8.27,0,0,0,1.5,3.24,5.59,5.59,0,0,0,2.28,1.71,8.59,8.59,0,0,0,5.83,0A5.11,5.11,0,0,0,90.56,38.32Z"/><path class="cls-1" d="M133,46.63a28.43,28.43,0,0,1-3.67.7,37.29,37.29,0,0,1-4.75.26q-6.29,0-9.34-2.54c-2-1.7-3.07-4.59-3.07-8.7V20.66h-4.42V13.37h4.42V3.78h10.79v9.59h10v7.29h-10V32.57q0,1.77,0,3.09a6.32,6.32,0,0,0,.48,2.36,3.33,3.33,0,0,0,1.47,1.66,6.27,6.27,0,0,0,3.09.62,9.07,9.07,0,0,0,2.19-.36,9.19,9.19,0,0,0,1.89-.66H133Z"/><path class="cls-1" d="M173.1,46.93H162.31V30.28a39.24,39.24,0,0,0-.21-4.05,8.53,8.53,0,0,0-.72-3,3.54,3.54,0,0,0-1.74-1.61,8.17,8.17,0,0,0-3.22-.51,9.8,9.8,0,0,0-3,.48,15.63,15.63,0,0,0-3.27,1.52V46.93H139.39V.43h10.79V17.07a27.22,27.22,0,0,1,5.5-3.43,14,14,0,0,1,5.87-1.2q5.43,0,8.49,3.17t3.06,9.47Z"/><path class="cls-1" d="M194.08,8.59H182.69V.43h11.39Zm-.3,38.34H183V13.37h10.79Z"/><path class="cls-1" d="M237.62,46.93H226.83V30.28a39.24,39.24,0,0,0-.21-4.05,8.56,8.56,0,0,0-.71-3,3.56,3.56,0,0,0-1.75-1.61,8.15,8.15,0,0,0-3.21-.51,9.81,9.81,0,0,0-3,.48,16.11,16.11,0,0,0-3.27,1.52V46.93H203.91V13.37H214.7v3.7a27.27,27.27,0,0,1,5.51-3.43,14,14,0,0,1,5.86-1.2q5.43,0,8.49,3.17t3.06,9.47Z"/><path class="cls-1" d="M280.15,43.07a20.83,20.83,0,0,1-1.34,8A11.93,11.93,0,0,1,275,56.08a15.47,15.47,0,0,1-5.84,2.67,33.15,33.15,0,0,1-7.73.82,56,56,0,0,1-6.89-.42,53.1,53.1,0,0,1-5.87-1v-8.4H250a33.69,33.69,0,0,0,4.81,1.42,23.09,23.09,0,0,0,5.07.64,17.45,17.45,0,0,0,4.85-.55,6.46,6.46,0,0,0,2.85-1.57,5.55,5.55,0,0,0,1.34-2.45,13.4,13.4,0,0,0,.42-3.59V43a16.22,16.22,0,0,1-4.3,2.51,14.39,14.39,0,0,1-5.25.92q-7,0-10.87-4.24T245.12,29.3a19.8,19.8,0,0,1,1.17-7.17,15.71,15.71,0,0,1,3.28-5.26,13.34,13.34,0,0,1,4.85-3.26,15.56,15.56,0,0,1,5.9-1.17,18.13,18.13,0,0,1,4.94.64,16.24,16.24,0,0,1,4,1.78l.39-1.49h10.46Zm-10.79-6.72V21.14a10.17,10.17,0,0,0-2.26-.61,14.86,14.86,0,0,0-2.42-.23q-4.23,0-6.35,2.44a10,10,0,0,0-2.12,6.8c0,3.22.6,5.48,1.81,6.75a7,7,0,0,0,5.35,1.91,10.38,10.38,0,0,0,3.16-.5A11.92,11.92,0,0,0,269.36,36.35Z"/><path class="cls-1" d="M347.45,32.94a12.71,12.71,0,0,1-5.57,10.69q-5.58,4.11-15.14,4.11a42.75,42.75,0,0,1-9.64-1,49.45,49.45,0,0,1-7.69-2.47V33.63h1.25a26.51,26.51,0,0,0,8,4.36,25.79,25.79,0,0,0,8.47,1.53,27.42,27.42,0,0,0,2.75-.18,10.94,10.94,0,0,0,2.78-.6,7.09,7.09,0,0,0,2.17-1.34,3.18,3.18,0,0,0,.85-2.39,3.25,3.25,0,0,0-1.24-2.53,8.64,8.64,0,0,0-3.63-1.63q-2.52-.6-5.31-1.12a40.49,40.49,0,0,1-5.24-1.33q-5.62-1.81-8.09-4.94a12.17,12.17,0,0,1-2.46-7.76q0-6.21,5.57-10.15t14.33-3.93a44.28,44.28,0,0,1,8.68.86,40.49,40.49,0,0,1,7.43,2.13V14.86h-1.23a23.82,23.82,0,0,0-6.59-3.6,22.81,22.81,0,0,0-8-1.45,21,21,0,0,0-2.86.2,11.24,11.24,0,0,0-2.73.73,5.2,5.2,0,0,0-2,1.36,3,3,0,0,0-.84,2.08,3.1,3.1,0,0,0,1.35,2.7,15,15,0,0,0,5.08,1.72l4.7,1a48.55,48.55,0,0,1,4.86,1.32A16.24,16.24,0,0,1,345,25.46,11.22,11.22,0,0,1,347.45,32.94Z"/><path class="cls-1" d="M376.17,46.63a28.43,28.43,0,0,1-3.67.7,37.35,37.35,0,0,1-4.76.26q-6.27,0-9.33-2.54c-2.05-1.7-3.07-4.59-3.07-8.7V20.66h-4.42V13.37h4.42V3.78h10.79v9.59h10v7.29h-10V32.57q0,1.77,0,3.09a6.32,6.32,0,0,0,.48,2.36,3.33,3.33,0,0,0,1.47,1.66,6.27,6.27,0,0,0,3.09.62,9.07,9.07,0,0,0,2.19-.36,9.19,9.19,0,0,0,1.89-.66h.89Z"/><path class="cls-1" d="M416.91,30.16q0,8.28-4.83,13.05T398.53,48Q389.8,48,385,43.21t-4.82-13q0-8.32,4.85-13.09t13.53-4.75q8.78,0,13.58,4.78T416.91,30.16Zm-13.24,8.16a8.67,8.67,0,0,0,1.57-3.09,19.22,19.22,0,0,0,.52-5,19.4,19.4,0,0,0-.54-5,8.77,8.77,0,0,0-1.49-3.19,5.29,5.29,0,0,0-2.3-1.74,8.15,8.15,0,0,0-2.9-.51,8.44,8.44,0,0,0-2.77.42,5.51,5.51,0,0,0-2.31,1.68,8.49,8.49,0,0,0-1.57,3.19,18.83,18.83,0,0,0-.59,5.11A19.58,19.58,0,0,0,391.8,35a8.27,8.27,0,0,0,1.5,3.24,5.66,5.66,0,0,0,2.28,1.71,8,8,0,0,0,3,.53,8,8,0,0,0,2.79-.49A5.11,5.11,0,0,0,403.67,38.32Z"/><path class="cls-1" d="M448.94,23.62H448a9.6,9.6,0,0,0-2.21-.36c-1-.08-1.86-.12-2.53-.12a24.48,24.48,0,0,0-4.06.3,22.86,22.86,0,0,0-3.78,1V46.93H424.62V13.37h10.79V18.3a22.42,22.42,0,0,1,6.17-4.05,13.59,13.59,0,0,1,4.83-1l1.28,0c.48,0,.9.05,1.25.09Z"/><path class="cls-1" d="M488.09,32.14H463.47a7.73,7.73,0,0,0,3,6q2.76,2.1,8.15,2.1a18.22,18.22,0,0,0,6.6-1.23,20.6,20.6,0,0,0,5-2.63h1.2v8.64a40.74,40.74,0,0,1-6.88,2.12,35.69,35.69,0,0,1-7.14.66q-10.09,0-15.48-4.55t-5.38-12.94q0-8.3,5.1-13.16t14-4.86q8.19,0,12.31,4.14t4.12,11.91Zm-10.7-6.31a7.52,7.52,0,0,0-1.67-5.08c-1.05-1.14-2.7-1.7-4.93-1.7a7.85,7.85,0,0,0-5.11,1.61c-1.34,1.08-2.08,2.8-2.24,5.17Z"/></svg>